<?xml version="1.0" encoding="utf-8"?>
<!-- Generator: Adobe Illustrator 22.0.1, SVG Export Plug-In . SVG Version: 6.00 Build 0)  -->
<svg version="1.1" id="Camada_1" xmlns="http://www.w3.org/2000/svg" xmlns:xlink="http://www.w3.org/1999/xlink" x="0px" y="0px"
	 viewBox="0 0 60 60" style="enable-background:new 0 0 60 60;" xml:space="preserve">
<style type="text/css">
	.st0{fill:#8FF769;}
	.st1{fill:#3387A8;}
	.st2{fill-rule:evenodd;clip-rule:evenodd;fill:#F84B6D;}
	.st3{fill:none;stroke:#FFFFFF;stroke-width:5.1326;stroke-linecap:round;stroke-miterlimit:10;}
</style>
<title>Ativo 1</title>
<g id="Camada_2_2_">
	<g id="Camada_1-2_1_">
		<circle class="st0" cx="30" cy="31" r="28.3"/>
	</g>
</g>
<g>
	<g>
		<g>
			<rect x="26.4" y="31.3" class="st1" width="4.8" height="4.8"/>
		</g>
		<g>
			<rect x="26.4" y="36.9" class="st1" width="4" height="4.8"/>
		</g>
		<g>
			<rect x="26.4" y="25.7" class="st1" width="4.8" height="4.8"/>
		</g>
		<g>
			<rect x="37.7" y="31.3" class="st1" width="4.8" height="4.8"/>
		</g>
		<g>
			<rect x="37.7" y="25.7" class="st1" width="4.8" height="4.8"/>
		</g>
		<g>
			<rect x="32" y="31.3" class="st1" width="4.8" height="4.8"/>
		</g>
		<g>
			<rect x="32" y="25.7" class="st1" width="4.8" height="4.8"/>
		</g>
		<g>
			<rect x="20.8" y="25.7" class="st1" width="4.8" height="4.8"/>
		</g>
		<g>
			<polygon class="st1" points="20.8,24.8 20.8,23.2 25.6,20.4 25.6,24.8 			"/>
		</g>
		<g>
			<polygon class="st1" points="27.7,19.2 30.4,17.6 30.4,19.2 			"/>
		</g>
		<g>
			<rect x="20.8" y="31.3" class="st1" width="4.8" height="4.8"/>
		</g>
		<g>
			<rect x="26.4" y="20" class="st1" width="4" height="4.8"/>
		</g>
		<g>
			<polygon class="st1" points="18,24.8 19.9,23.7 19.9,24.8 			"/>
		</g>
		<g>
			<polygon class="st1" points="16.5,25.7 19.9,25.7 19.9,30.5 15.1,30.5 15.1,26.5 			"/>
		</g>
		<g>
			<polygon class="st1" points="19.9,31.3 19.9,36.1 16.5,36.1 15.1,35.3 15.1,31.3 			"/>
		</g>
		<g>
			<polygon class="st1" points="9.5,29.7 14.3,26.9 14.3,30.5 9.5,30.5 			"/>
		</g>
		<g>
			<polygon class="st1" points="19.9,36.9 19.9,38.1 18,36.9 			"/>
		</g>
		<g>
			<polygon class="st1" points="8.6,30.2 8.6,31.5 7.5,30.9 			"/>
		</g>
		<g>
			<polygon class="st1" points="14.3,31.3 14.3,34.8 9.5,32 9.5,31.3 			"/>
		</g>
		<g>
			<rect x="48.9" y="25.7" class="st1" width="2.6" height="4.8"/>
		</g>
		<g>
			<rect x="43.3" y="31.3" class="st1" width="4.8" height="4.8"/>
		</g>
		<g>
			<rect x="43.3" y="25.7" class="st1" width="4.8" height="4.8"/>
		</g>
		<g>
			<polygon class="st1" points="30.4,44.1 27.7,42.6 30.4,42.6 			"/>
		</g>
		<g>
			<polygon class="st1" points="25.6,36.9 25.6,41.3 20.8,38.5 20.8,36.9 			"/>
		</g>
		<g>
			<rect x="48.9" y="31.3" class="st1" width="2.6" height="4.8"/>
		</g>
	</g>
</g>
<g>
	
		<rect x="-2.3" y="-1.5" transform="matrix(-1 -1.224647e-16 1.224647e-16 -1 59.53 61.1367)" class="st2" width="64.2" height="64.2"/>
	<g>
		<g>
			<line class="st3" x1="28.2" y1="49.9" x2="9.5" y2="31.1"/>
			<line class="st3" x1="9.5" y1="31.1" x2="28.2" y2="12.4"/>
		</g>
		<line class="st3" x1="9.5" y1="31.1" x2="50.1" y2="31.1"/>
	</g>
</g>
</svg>
