<svg width="192" height="35" viewBox="0 0 192 35" fill="none" xmlns="http://www.w3.org/2000/svg">
<path d="M9.02454 12.7189C11.1129 12.7189 12.8962 13.5098 14.3744 15.0917C15.8526 16.6736 16.5919 18.6121 16.5923 20.9071C16.5923 23.202 15.853 25.1405 14.3744 26.7225C12.8958 28.3045 11.1125 29.0952 9.02454 29.0948C6.85341 29.0948 5.17853 28.3401 3.99991 26.8308V34.8639H0V13.1533H4.00098V14.9829C5.17864 13.4742 6.85317 12.7195 9.02454 12.7189ZM5.20939 24.0551C6.01594 24.8722 7.0395 25.2805 8.28006 25.28C8.85078 25.2972 9.41898 25.1974 9.94969 24.9868C10.4804 24.7761 10.9624 24.4591 11.3659 24.0551C12.1826 23.2385 12.5909 22.1891 12.5907 20.9071C12.5906 19.6251 12.1822 18.5758 11.3656 17.7592C10.9619 17.3555 10.4799 17.0385 9.94921 16.8279C9.41853 16.6172 8.85038 16.5174 8.27969 16.5344C7.03865 16.5344 6.0151 16.9427 5.20902 17.7592C4.40295 18.5758 3.9998 19.6253 3.99957 20.9076C3.99992 22.1893 4.40326 23.2384 5.20957 24.055L5.20939 24.0551Z" fill="#3B3A3A"/>
<path d="M22.7947 6.0196H18.7939V28.6606H22.7947V6.0196Z" fill="#3B3A3A"/>
<path d="M37.6196 13.1533H41.6208V28.6602H37.6196V26.8308C36.4204 28.3405 34.7354 29.0951 32.5645 29.0948C30.4966 29.0948 28.7235 28.3039 27.2452 26.7223C25.7668 25.1407 25.0276 23.2022 25.0276 20.9069C25.0276 18.6118 25.7668 16.6733 27.2452 15.0915C28.7235 13.5098 30.4966 12.7188 32.5645 12.7187C34.7354 12.7187 36.4204 13.4734 37.6196 14.9827V13.1533ZM30.2392 24.0543C31.0454 24.8713 32.0689 25.2796 33.3097 25.2791C33.8804 25.2963 34.4486 25.1965 34.9793 24.9859C35.51 24.7752 35.992 24.4582 36.3955 24.0543C37.2122 23.2376 37.6205 22.1882 37.6203 20.9062C37.6202 19.6242 37.212 18.5747 36.3955 17.7578C35.9919 17.354 35.5099 17.0371 34.9792 16.8265C34.4485 16.6158 33.8804 16.5159 33.3097 16.533C32.0693 16.533 31.0458 16.9412 30.2392 17.7578C29.4325 18.5744 29.0292 19.6238 29.0293 20.9062C29.0289 22.1888 29.4319 23.2384 30.2383 24.055L30.2392 24.0543Z" fill="#3B3A3A"/>
<path d="M53.4994 16.999H49.995V23.4502C49.995 23.9884 50.1292 24.3807 50.398 24.6296C50.7304 24.9017 51.1471 25.0496 51.5766 25.048C52.2173 25.0785 52.8593 25.0733 53.4994 25.0324V28.6614C50.7493 28.9711 48.8108 28.7126 47.6841 27.8858C46.5573 27.059 45.9939 25.5805 45.9939 23.4504V16.9992H43.2954V13.1531H45.9939V10.0204L49.995 8.81097V13.1535H53.4994V16.999Z" fill="#3B3A3A"/>
<path d="M67.0216 13.1533H71.0227V28.6602H67.0216V26.8308C65.8224 28.3405 64.1372 29.0951 61.966 29.0948C59.8984 29.0948 58.1254 28.3039 56.6468 26.7223C55.1682 25.1407 54.4291 23.2022 54.4294 20.9069C54.4294 18.6118 55.1685 16.6733 56.6468 15.0915C58.125 13.5098 59.8981 12.7188 61.966 12.7187C64.1372 12.7187 65.8224 13.4734 67.0216 14.9827V13.1533ZM59.6411 24.0543C60.4471 24.8713 61.4706 25.2796 62.7116 25.2791C63.2823 25.2963 63.8506 25.1965 64.3813 24.9859C64.9121 24.7752 65.3941 24.4582 65.7976 24.0543C66.6141 23.2376 67.0224 22.1882 67.0225 20.9062C67.0226 19.6242 66.6143 18.5747 65.7976 17.7578C65.3939 17.354 64.9119 17.0371 64.3812 16.8265C63.8505 16.6158 63.2823 16.5159 62.7116 16.533C61.4713 16.533 60.4478 16.9412 59.6411 17.7578C58.8344 18.5744 58.4312 19.6238 58.4313 20.9062C58.431 22.1888 58.8343 23.2384 59.6411 24.055V24.0543Z" fill="#3B3A3A"/>
<path d="M82.3742 10.362C80.1821 10.1963 79.0861 11.0749 79.0861 12.9977V13.1532H82.3742V16.9989H79.0861V28.6607H75.0854V16.9991H72.8516V13.1534H75.0854V12.9979C75.0854 10.8066 75.6953 9.14217 76.9151 8.00454C78.135 6.86691 79.9545 6.37065 82.3738 6.51576L82.3742 10.362Z" fill="#3B3A3A"/>
<path d="M96.2066 26.7223C94.6141 28.3043 92.6705 29.0951 90.3758 29.0948C88.0811 29.0944 86.1427 28.3036 84.5604 26.7223C82.9787 25.1405 82.1877 23.2021 82.1876 20.9069C82.1875 18.6118 82.9784 16.6733 84.5604 15.0915C86.1419 13.5098 88.0803 12.7188 90.3758 12.7187C92.6713 12.7186 94.6149 13.5095 96.2066 15.0915C97.7988 16.6731 98.595 18.6115 98.5951 20.9069C98.5952 23.2023 97.7991 25.1408 96.2066 26.7223ZM87.3831 23.9774C87.7717 24.3744 88.2381 24.6867 88.7532 24.8949C89.2682 25.103 89.8207 25.2024 90.376 25.1869C90.9335 25.2014 91.4881 25.1015 92.0055 24.8935C92.5229 24.6855 92.9923 24.3737 93.3847 23.9774C94.1909 23.1709 94.594 22.1474 94.5941 20.9069C94.5943 19.6665 94.1911 18.6431 93.3847 17.8368C92.9923 17.4404 92.523 17.1285 92.0056 16.9204C91.4881 16.7123 90.9336 16.6124 90.376 16.6268C89.8207 16.6113 89.2682 16.7109 88.7531 16.9191C88.2381 17.1273 87.7716 17.4397 87.3831 17.8368C86.5868 18.6427 86.1887 19.6661 86.1888 20.9069C86.1889 22.1477 86.587 23.1715 87.3831 23.9781V23.9774Z" fill="#3B3A3A"/>
<path d="M104.798 15.8203C105.127 14.8798 105.782 14.088 106.643 13.5876C107.516 13.0872 108.506 12.8301 109.512 12.8429V17.3092C108.367 17.1476 107.203 17.4125 106.24 18.0535C105.279 18.6946 104.798 19.7595 104.798 21.2481V28.6609H100.797V13.1533H104.798V15.8203Z" fill="#3B3A3A"/>
<path d="M128.369 12.7189C130.147 12.7189 131.569 13.2979 132.634 14.4559C133.699 15.6139 134.231 17.1646 134.231 19.1081V28.6602H130.23V19.387C130.23 18.4565 130.003 17.7328 129.548 17.2162C129.093 16.6995 128.451 16.4411 127.624 16.4409C126.714 16.4409 126.006 16.7407 125.5 17.3402C124.994 17.9397 124.741 18.8081 124.74 19.9455V28.6602H120.739V19.387C120.739 18.4565 120.512 17.7328 120.057 17.2162C119.602 16.6995 118.961 16.4411 118.134 16.4409C117.245 16.4409 116.537 16.7407 116.01 17.3402C115.483 17.9397 115.219 18.8081 115.219 19.9455V28.6602H111.218V13.1533H115.219V14.7974C116.149 13.4123 117.586 12.7196 119.53 12.7193C121.432 12.7193 122.838 13.4639 123.747 14.953C124.781 13.4642 126.322 12.7195 128.369 12.7189Z" fill="#3B3A3A"/>
<path d="M148.808 13.1533H152.81V28.6602H148.808V26.8308C147.609 28.3405 145.924 29.0951 143.753 29.0948C141.685 29.0948 139.912 28.3039 138.434 26.7223C136.955 25.1407 136.216 23.2022 136.216 20.9069C136.216 18.6118 136.955 16.6733 138.434 15.0915C139.912 13.5098 141.685 12.7188 143.753 12.7187C145.924 12.7187 147.609 13.4734 148.808 14.9827V13.1533ZM141.428 24.0543C142.234 24.8713 143.257 25.2796 144.498 25.2791C145.069 25.2963 145.637 25.1965 146.168 24.9859C146.699 24.7752 147.181 24.4582 147.584 24.0543C148.401 23.2376 148.809 22.1882 148.809 20.9062C148.809 19.6242 148.401 18.5747 147.584 17.7578C147.181 17.354 146.699 17.0371 146.168 16.8265C145.637 16.6158 145.069 16.516 144.498 16.533C143.258 16.533 142.234 16.9412 141.428 17.7578C140.622 18.5744 140.218 19.6238 140.218 20.9062C140.217 22.1888 140.62 23.2384 141.426 24.055L141.428 24.0543Z" fill="#3B3A3A"/>
<path d="M174.736 13.1533H178.737V28.6602H174.736V26.8308C173.537 28.3405 171.852 29.0951 169.681 29.0948C167.613 29.0948 165.84 28.3039 164.362 26.7223C162.883 25.1407 162.144 23.2022 162.144 20.9069C162.144 18.6118 162.883 16.6733 164.362 15.0915C165.84 13.5098 167.613 12.7188 169.681 12.7187C171.852 12.7187 173.537 13.4734 174.736 14.9827V13.1533ZM167.356 24.0543C168.162 24.8713 169.185 25.2796 170.426 25.2791C170.997 25.2964 171.565 25.1966 172.096 24.9859C172.626 24.7753 173.108 24.4582 173.512 24.0543C174.329 23.2376 174.737 22.1882 174.737 20.9062C174.737 19.6242 174.328 18.5752 173.511 17.7592C173.107 17.3554 172.625 17.0385 172.094 16.8278C171.563 16.6172 170.995 16.5173 170.425 16.5344C169.184 16.5344 168.161 16.9427 167.354 17.7592C166.547 18.5758 166.144 19.6253 166.144 20.9076C166.145 22.1893 166.548 23.2384 167.355 24.055L167.356 24.0543Z" fill="#3B3A3A"/>
<path d="M192 6.26566H184.137V9.54952H192" fill="#F7AAAC"/>
<path d="M182.496 7.90785V15.7708H185.78V7.90785" fill="#F0666F"/>
<path d="M182.496 0.0454102V6.26573H176.276V9.54977H185.78V0.0454102H182.496Z" fill="#D91F3D"/>
</svg>
