<svg width="192" height="35" viewBox="0 0 192 35" fill="none" xmlns="http://www.w3.org/2000/svg">
<path d="M9.02454 12.6735C11.1129 12.6735 12.8962 13.4644 14.3744 15.0463C15.8526 16.6282 16.5919 18.5667 16.5923 20.8617C16.5923 23.1566 15.853 25.0951 14.3744 26.6771C12.8958 28.2591 11.1125 29.0498 9.02454 29.0494C6.85341 29.0494 5.17852 28.2947 3.99991 26.7854V34.8185H0V13.1079H4.00098V14.9375C5.17864 13.4287 6.85317 12.6741 9.02454 12.6735ZM5.20939 24.0097C6.01594 24.8268 7.03949 25.2351 8.28006 25.2346C8.85078 25.2518 9.41898 25.152 9.94969 24.9414C10.4804 24.7307 10.9624 24.4137 11.3659 24.0097C12.1826 23.1931 12.5909 22.1437 12.5907 20.8617C12.5906 19.5797 12.1822 18.5304 11.3656 17.7138C10.9619 17.31 10.4799 16.9931 9.94921 16.7825C9.41853 16.5718 8.85038 16.472 8.27969 16.489C7.03865 16.489 6.0151 16.8973 5.20902 17.7138C4.40295 18.5304 3.9998 19.5799 3.99957 20.8622C3.99992 22.1439 4.40326 23.193 5.20957 24.0096L5.20939 24.0097Z" fill="white"/>
<path d="M22.7947 5.97424H18.7939V28.6153H22.7947V5.97424Z" fill="white"/>
<path d="M37.6196 13.1079H41.6208V28.6148H37.6196V26.7854C36.4204 28.295 34.7354 29.0497 32.5645 29.0494C30.4966 29.0494 28.7235 28.2585 27.2452 26.6769C25.7668 25.0952 25.0276 23.1568 25.0276 20.8615C25.0276 18.5664 25.7668 16.6279 27.2452 15.0461C28.7235 13.4644 30.4966 12.6734 32.5645 12.6733C34.7354 12.6733 36.4204 13.428 37.6196 14.9373V13.1079ZM30.2392 24.0088C31.0454 24.8259 32.0689 25.2342 33.3097 25.2337C33.8804 25.2509 34.4486 25.1511 34.9793 24.9405C35.51 24.7298 35.992 24.4128 36.3955 24.0088C37.2122 23.1922 37.6205 22.1428 37.6203 20.8608C37.6202 19.5788 37.212 18.5293 36.3955 17.7124C35.9919 17.3086 35.5099 16.9917 34.9792 16.781C34.4485 16.5704 33.8804 16.4705 33.3097 16.4876C32.0693 16.4876 31.0458 16.8958 30.2392 17.7124C29.4325 18.529 29.0292 19.5784 29.0293 20.8608C29.0289 22.1434 29.4318 23.193 30.2383 24.0096L30.2392 24.0088Z" fill="white"/>
<path d="M53.4994 16.9536H49.995V23.4048C49.995 23.9431 50.1292 24.3353 50.398 24.5843C50.7304 24.8563 51.1471 25.0042 51.5766 25.0026C52.2173 25.0331 52.8593 25.0279 53.4994 24.9871V28.616C50.7493 28.9258 48.8108 28.6672 47.6841 27.8404C46.5573 27.0136 45.9939 25.5352 45.9939 23.405V16.9538H43.2954V13.1077H45.9939V9.97506L49.995 8.7656V13.1081H53.4994V16.9536Z" fill="white"/>
<path d="M67.0216 13.1079H71.0227V28.6148H67.0216V26.7854C65.8224 28.295 64.1372 29.0497 61.966 29.0494C59.8984 29.0494 58.1253 28.2585 56.6468 26.6769C55.1682 25.0952 54.429 23.1568 54.4294 20.8615C54.4294 18.5664 55.1685 16.6279 56.6468 15.0461C58.125 13.4644 59.8981 12.6734 61.966 12.6733C64.1372 12.6733 65.8224 13.428 67.0216 14.9373V13.1079ZM59.6411 24.0088C60.4471 24.8259 61.4706 25.2342 62.7116 25.2337C63.2823 25.2509 63.8506 25.1511 64.3813 24.9405C64.912 24.7298 65.3941 24.4128 65.7976 24.0088C66.6141 23.1922 67.0224 22.1428 67.0225 20.8608C67.0226 19.5788 66.6143 18.5293 65.7976 17.7124C65.3939 17.3086 64.9119 16.9917 64.3812 16.781C63.8505 16.5704 63.2823 16.4705 62.7116 16.4876C61.4713 16.4876 60.4478 16.8958 59.6411 17.7124C58.8344 18.529 58.4312 19.5784 58.4313 20.8608C58.431 22.1434 58.8343 23.193 59.6411 24.0096V24.0088Z" fill="white"/>
<path d="M82.3742 10.3166C80.1821 10.1509 79.086 11.0294 79.086 12.9523V13.1077H82.3742V16.9535H79.086V28.6153H75.0854V16.9536H72.8516V13.1079H75.0854V12.9524C75.0854 10.7612 75.6953 9.09673 76.9151 7.95911C78.135 6.82148 79.9545 6.32522 82.3738 6.47033L82.3742 10.3166Z" fill="white"/>
<path d="M96.2066 26.6769C94.6141 28.2589 92.6705 29.0497 90.3758 29.0494C88.0811 29.049 86.1427 28.2582 84.5604 26.6769C82.9787 25.0951 82.1877 23.1567 82.1876 20.8615C82.1875 18.5664 82.9784 16.6279 84.5604 15.0461C86.1419 13.4644 88.0803 12.6734 90.3758 12.6733C92.6713 12.6732 94.6149 13.4641 96.2066 15.0461C97.7988 16.6277 98.595 18.5661 98.5951 20.8615C98.5952 23.1569 97.7991 25.0954 96.2066 26.6769ZM87.3831 23.932C87.7717 24.329 88.2381 24.6413 88.7532 24.8495C89.2682 25.0576 89.8207 25.157 90.376 25.1415C90.9335 25.1559 91.488 25.0561 92.0055 24.8481C92.5229 24.6401 92.9923 24.3283 93.3847 23.932C94.1908 23.1255 94.594 22.102 94.5941 20.8615C94.5943 19.6211 94.1911 18.5977 93.3847 17.7914C92.9923 17.395 92.523 17.0831 92.0056 16.875C91.4881 16.6669 90.9335 16.567 90.376 16.5814C89.8207 16.5659 89.2682 16.6654 88.7531 16.8737C88.2381 17.0819 87.7716 17.3943 87.3831 17.7914C86.5868 18.5973 86.1887 19.6207 86.1888 20.8615C86.1889 22.1023 86.587 23.126 87.3831 23.9327V23.932Z" fill="white"/>
<path d="M104.798 15.7749C105.127 14.8344 105.782 14.0426 106.643 13.5422C107.516 13.0419 108.506 12.7847 109.512 12.7975V17.2639C108.367 17.1022 107.203 17.3671 106.24 18.0082C105.279 18.6492 104.798 19.7141 104.798 21.2027V28.6155H100.797V13.1079H104.798V15.7749Z" fill="white"/>
<path d="M128.369 12.6735C130.147 12.6735 131.569 13.2525 132.634 14.4105C133.699 15.5685 134.231 17.1192 134.231 19.0627V28.6148H130.23V19.3416C130.23 18.4111 130.003 17.6874 129.548 17.1707C129.093 16.654 128.451 16.3956 127.624 16.3955C126.714 16.3955 126.006 16.6953 125.5 17.2948C124.994 17.8943 124.741 18.7627 124.74 19.9001V28.6148H120.739V19.3416C120.739 18.4111 120.512 17.6874 120.057 17.1707C119.602 16.654 118.961 16.3956 118.134 16.3955C117.245 16.3955 116.537 16.6953 116.01 17.2948C115.483 17.8943 115.219 18.7627 115.219 19.9001V28.6148H111.218V13.1079H115.219V14.752C116.149 13.3669 117.586 12.6742 119.53 12.6738C121.432 12.6738 122.838 13.4184 123.747 14.9076C124.781 13.4188 126.322 12.6741 128.369 12.6735Z" fill="white"/>
<path d="M148.808 13.1079H152.81V28.6148H148.808V26.7854C147.609 28.295 145.924 29.0497 143.753 29.0494C141.685 29.0494 139.912 28.2585 138.434 26.6769C136.955 25.0952 136.216 23.1568 136.216 20.8615C136.216 18.5664 136.955 16.6279 138.434 15.0461C139.912 13.4644 141.685 12.6734 143.753 12.6733C145.924 12.6733 147.609 13.428 148.808 14.9373V13.1079ZM141.428 24.0088C142.234 24.8259 143.257 25.2342 144.498 25.2337C145.069 25.2509 145.637 25.1511 146.168 24.9405C146.699 24.7298 147.181 24.4128 147.584 24.0088C148.401 23.1922 148.809 22.1428 148.809 20.8608C148.809 19.5788 148.401 18.5293 147.584 17.7124C147.181 17.3086 146.699 16.9917 146.168 16.7811C145.637 16.5704 145.069 16.4705 144.498 16.4876C143.258 16.4876 142.234 16.8958 141.428 17.7124C140.622 18.529 140.218 19.5784 140.218 20.8608C140.217 22.1434 140.62 23.193 141.426 24.0096L141.428 24.0088Z" fill="white"/>
<path d="M174.736 13.1079H178.737V28.6148H174.736V26.7854C173.537 28.295 171.852 29.0497 169.681 29.0494C167.613 29.0494 165.84 28.2585 164.362 26.6769C162.883 25.0952 162.144 23.1568 162.144 20.8615C162.144 18.5664 162.883 16.6279 164.362 15.0461C165.84 13.4644 167.613 12.6734 169.681 12.6733C171.852 12.6733 173.537 13.428 174.736 14.9373V13.1079ZM167.356 24.0088C168.162 24.8259 169.185 25.2342 170.426 25.2337C170.997 25.2509 171.565 25.1512 172.096 24.9405C172.626 24.7299 173.108 24.4128 173.512 24.0088C174.329 23.1922 174.737 22.1428 174.737 20.8608C174.737 19.5788 174.328 18.5298 173.511 17.7138C173.107 17.31 172.625 16.9931 172.094 16.7824C171.564 16.5718 170.995 16.4719 170.425 16.489C169.184 16.489 168.161 16.8973 167.354 17.7138C166.547 18.5304 166.144 19.5799 166.144 20.8622C166.145 22.1439 166.548 23.193 167.355 24.0096L167.356 24.0088Z" fill="white"/>
<path d="M192 6.22032H184.137V9.50417H192" fill="#F7AAAC"/>
<path d="M182.496 7.86243V15.7254H185.78V7.86243" fill="#F0666F"/>
<path d="M182.496 0V6.22032H176.276V9.50436H185.78V0H182.496Z" fill="#D91F3D"/>
</svg>
